<svg width="597" height="50" viewBox="0 0 597 50" fill="none" xmlns="http://www.w3.org/2000/svg">
<rect width="597" height="50" rx="12" fill="#444444"/>
<path d="M224.285 27.4746L226.748 28.0967C226.232 30.1195 225.301 31.6641 223.955 32.7305C222.618 33.7884 220.98 34.3174 219.042 34.3174C217.036 34.3174 215.403 33.9111 214.142 33.0986C212.889 32.2777 211.933 31.0928 211.272 29.5439C210.621 27.9951 210.295 26.332 210.295 24.5547C210.295 22.6165 210.663 20.9281 211.399 19.4893C212.144 18.042 213.198 16.946 214.561 16.2012C215.932 15.4479 217.438 15.0713 219.08 15.0713C220.942 15.0713 222.508 15.5452 223.777 16.4932C225.047 17.4411 225.931 18.7741 226.431 20.4922L224.006 21.0635C223.574 19.7093 222.948 18.7233 222.127 18.1055C221.306 17.4876 220.273 17.1787 219.029 17.1787C217.599 17.1787 216.401 17.5215 215.437 18.207C214.48 18.8926 213.807 19.8151 213.418 20.9746C213.029 22.1257 212.834 23.3148 212.834 24.542C212.834 26.1247 213.062 27.5085 213.52 28.6934C213.985 29.8698 214.704 30.75 215.678 31.334C216.651 31.918 217.705 32.21 218.839 32.21C220.218 32.21 221.386 31.8122 222.343 31.0166C223.299 30.221 223.947 29.0404 224.285 27.4746ZM229.478 34V20.5176H231.534V22.5615C232.059 21.6051 232.541 20.9746 232.981 20.6699C233.43 20.3652 233.921 20.2129 234.454 20.2129C235.224 20.2129 236.007 20.4583 236.803 20.9492L236.016 23.0693C235.457 22.7393 234.898 22.5742 234.34 22.5742C233.84 22.5742 233.392 22.7266 232.994 23.0312C232.596 23.3275 232.313 23.7422 232.144 24.2754C231.89 25.0879 231.763 25.9766 231.763 26.9414V34H229.478ZM247.391 29.6582L249.752 29.9502C249.38 31.3298 248.69 32.4004 247.683 33.1621C246.675 33.9238 245.389 34.3047 243.823 34.3047C241.851 34.3047 240.285 33.6995 239.126 32.4893C237.975 31.2705 237.399 29.5651 237.399 27.373C237.399 25.1048 237.983 23.3444 239.151 22.0918C240.319 20.8392 241.834 20.2129 243.696 20.2129C245.499 20.2129 246.972 20.8265 248.114 22.0537C249.257 23.2809 249.828 25.0075 249.828 27.2334C249.828 27.3688 249.824 27.5719 249.815 27.8428H239.761C239.845 29.3239 240.264 30.458 241.018 31.2451C241.771 32.0322 242.71 32.4258 243.836 32.4258C244.674 32.4258 245.389 32.2057 245.981 31.7656C246.574 31.3255 247.044 30.623 247.391 29.6582ZM239.888 25.9639H247.416C247.314 24.8298 247.027 23.9792 246.553 23.4121C245.825 22.5319 244.881 22.0918 243.722 22.0918C242.672 22.0918 241.788 22.443 241.068 23.1455C240.357 23.848 239.964 24.7874 239.888 25.9639ZM261.432 32.3369C260.585 33.0563 259.769 33.5641 258.981 33.8604C258.203 34.1566 257.365 34.3047 256.468 34.3047C254.987 34.3047 253.848 33.945 253.053 33.2256C252.257 32.4977 251.859 31.571 251.859 30.4453C251.859 29.7852 252.007 29.1842 252.304 28.6426C252.608 28.0924 253.002 27.6523 253.484 27.3223C253.975 26.9922 254.525 26.7425 255.135 26.5732C255.583 26.4548 256.26 26.3405 257.166 26.2305C259.011 26.0104 260.369 25.748 261.241 25.4434C261.25 25.1302 261.254 24.9313 261.254 24.8467C261.254 23.9157 261.038 23.2598 260.606 22.8789C260.022 22.3626 259.155 22.1045 258.004 22.1045C256.929 22.1045 256.133 22.2949 255.617 22.6758C255.109 23.0482 254.733 23.7126 254.487 24.6689L252.253 24.3643C252.456 23.4079 252.79 22.6377 253.256 22.0537C253.721 21.4613 254.394 21.0085 255.274 20.6953C256.155 20.3737 257.174 20.2129 258.334 20.2129C259.485 20.2129 260.42 20.3483 261.14 20.6191C261.859 20.89 262.388 21.2327 262.727 21.6475C263.065 22.0537 263.302 22.57 263.438 23.1963C263.514 23.5856 263.552 24.2881 263.552 25.3037V28.3506C263.552 30.4749 263.598 31.8206 263.691 32.3877C263.793 32.9463 263.988 33.4837 264.275 34H261.889C261.652 33.526 261.499 32.9717 261.432 32.3369ZM261.241 27.2334C260.412 27.5719 259.168 27.8597 257.509 28.0967C256.569 28.2321 255.905 28.3844 255.516 28.5537C255.126 28.723 254.826 28.9727 254.614 29.3027C254.403 29.6243 254.297 29.984 254.297 30.3818C254.297 30.9912 254.525 31.499 254.982 31.9053C255.448 32.3115 256.125 32.5146 257.014 32.5146C257.894 32.5146 258.677 32.3242 259.362 31.9434C260.048 31.554 260.551 31.0251 260.873 30.3564C261.118 29.8402 261.241 29.0785 261.241 28.0713V27.2334ZM272.096 31.9561L272.426 33.9746C271.783 34.11 271.207 34.1777 270.699 34.1777C269.87 34.1777 269.227 34.0465 268.77 33.7842C268.312 33.5218 267.991 33.179 267.805 32.7559C267.618 32.3242 267.525 31.4229 267.525 30.0518V22.2949H265.85V20.5176H267.525V17.1787L269.798 15.8076V20.5176H272.096V22.2949H269.798V30.1787C269.798 30.8304 269.836 31.2493 269.912 31.4355C269.997 31.6217 270.128 31.7699 270.306 31.8799C270.492 31.9899 270.754 32.0449 271.093 32.0449C271.347 32.0449 271.681 32.0153 272.096 31.9561ZM283.572 29.6582L285.934 29.9502C285.561 31.3298 284.871 32.4004 283.864 33.1621C282.857 33.9238 281.571 34.3047 280.005 34.3047C278.033 34.3047 276.467 33.6995 275.308 32.4893C274.157 31.2705 273.581 29.5651 273.581 27.373C273.581 25.1048 274.165 23.3444 275.333 22.0918C276.501 20.8392 278.016 20.2129 279.878 20.2129C281.681 20.2129 283.153 20.8265 284.296 22.0537C285.438 23.2809 286.01 25.0075 286.01 27.2334C286.01 27.3688 286.006 27.5719 285.997 27.8428H275.942C276.027 29.3239 276.446 30.458 277.199 31.2451C277.952 32.0322 278.892 32.4258 280.018 32.4258C280.855 32.4258 281.571 32.2057 282.163 31.7656C282.756 31.3255 283.225 30.623 283.572 29.6582ZM276.069 25.9639H283.598C283.496 24.8298 283.208 23.9792 282.734 23.4121C282.007 22.5319 281.063 22.0918 279.903 22.0918C278.854 22.0918 277.969 22.443 277.25 23.1455C276.539 23.848 276.146 24.7874 276.069 25.9639ZM292.853 34L300 15.3887H302.653L310.271 34H307.465L305.294 28.3633H297.512L295.468 34H292.853ZM298.223 26.3574H304.532L302.59 21.2031C301.997 19.6374 301.557 18.3509 301.27 17.3438C301.033 18.5371 300.698 19.722 300.267 20.8984L298.223 26.3574ZM320.744 29.0615L322.991 29.3535C322.746 30.9023 322.115 32.1169 321.1 32.9971C320.092 33.8688 318.853 34.3047 317.38 34.3047C315.535 34.3047 314.049 33.7038 312.924 32.502C311.807 31.2917 311.248 29.5609 311.248 27.3096C311.248 25.8538 311.489 24.5801 311.972 23.4883C312.454 22.3965 313.186 21.5798 314.168 21.0381C315.158 20.488 316.233 20.2129 317.393 20.2129C318.857 20.2129 320.054 20.5853 320.985 21.3301C321.916 22.0664 322.513 23.1159 322.775 24.4785L320.554 24.8213C320.342 23.9157 319.965 23.2344 319.424 22.7773C318.891 22.3203 318.243 22.0918 317.481 22.0918C316.33 22.0918 315.395 22.5065 314.676 23.3359C313.956 24.1569 313.597 25.4603 313.597 27.2461C313.597 29.0573 313.944 30.3734 314.638 31.1943C315.332 32.0153 316.237 32.4258 317.354 32.4258C318.252 32.4258 319.001 32.1507 319.602 31.6006C320.202 31.0505 320.583 30.2041 320.744 29.0615ZM333.744 29.0615L335.991 29.3535C335.746 30.9023 335.115 32.1169 334.1 32.9971C333.092 33.8688 331.853 34.3047 330.38 34.3047C328.535 34.3047 327.049 33.7038 325.924 32.502C324.807 31.2917 324.248 29.5609 324.248 27.3096C324.248 25.8538 324.489 24.5801 324.972 23.4883C325.454 22.3965 326.186 21.5798 327.168 21.0381C328.158 20.488 329.233 20.2129 330.393 20.2129C331.857 20.2129 333.054 20.5853 333.985 21.3301C334.916 22.0664 335.513 23.1159 335.775 24.4785L333.554 24.8213C333.342 23.9157 332.965 23.2344 332.424 22.7773C331.891 22.3203 331.243 22.0918 330.481 22.0918C329.33 22.0918 328.395 22.5065 327.676 23.3359C326.956 24.1569 326.597 25.4603 326.597 27.2461C326.597 29.0573 326.944 30.3734 327.638 31.1943C328.332 32.0153 329.237 32.4258 330.354 32.4258C331.252 32.4258 332.001 32.1507 332.602 31.6006C333.202 31.0505 333.583 30.2041 333.744 29.0615ZM337.096 27.2588C337.096 24.762 337.79 22.9128 339.178 21.7109C340.337 20.7122 341.751 20.2129 343.418 20.2129C345.271 20.2129 346.786 20.8223 347.963 22.041C349.139 23.2513 349.728 24.9271 349.728 27.0684C349.728 28.8034 349.465 30.1702 348.94 31.1689C348.424 32.1592 347.667 32.9294 346.668 33.4795C345.678 34.0296 344.594 34.3047 343.418 34.3047C341.531 34.3047 340.003 33.6995 338.835 32.4893C337.675 31.279 337.096 29.5355 337.096 27.2588ZM339.444 27.2588C339.444 28.9854 339.821 30.2803 340.574 31.1436C341.327 31.9984 342.275 32.4258 343.418 32.4258C344.552 32.4258 345.496 31.9941 346.249 31.1309C347.002 30.2676 347.379 28.9515 347.379 27.1826C347.379 25.5153 346.998 24.2542 346.236 23.3994C345.483 22.5361 344.544 22.1045 343.418 22.1045C342.275 22.1045 341.327 22.5319 340.574 23.3867C339.821 24.2415 339.444 25.5322 339.444 27.2588ZM361.255 34V32.0195C360.205 33.543 358.779 34.3047 356.977 34.3047C356.181 34.3047 355.436 34.1523 354.742 33.8477C354.057 33.543 353.545 33.1621 353.206 32.7051C352.876 32.2396 352.643 31.6725 352.508 31.0039C352.415 30.5553 352.368 29.8444 352.368 28.8711V20.5176H354.653V27.9951C354.653 29.1885 354.7 29.9925 354.793 30.4072C354.937 31.0081 355.242 31.4821 355.707 31.8291C356.173 32.1676 356.748 32.3369 357.434 32.3369C358.119 32.3369 358.762 32.1634 359.363 31.8164C359.964 31.4609 360.387 30.9827 360.633 30.3818C360.887 29.7725 361.014 28.8923 361.014 27.7412V20.5176H363.299V34H361.255ZM366.892 34V20.5176H368.948V22.4346C369.938 20.9535 371.369 20.2129 373.239 20.2129C374.052 20.2129 374.797 20.361 375.474 20.6572C376.159 20.945 376.671 21.3258 377.01 21.7998C377.348 22.2738 377.585 22.8366 377.721 23.4883C377.805 23.9115 377.848 24.652 377.848 25.71V34H375.562V25.7988C375.562 24.8678 375.474 24.1738 375.296 23.7168C375.118 23.2513 374.801 22.8831 374.344 22.6123C373.895 22.333 373.366 22.1934 372.757 22.1934C371.784 22.1934 370.941 22.5023 370.23 23.1201C369.528 23.738 369.177 24.9102 369.177 26.6367V34H366.892ZM386.354 31.9561L386.684 33.9746C386.04 34.11 385.465 34.1777 384.957 34.1777C384.128 34.1777 383.484 34.0465 383.027 33.7842C382.57 33.5218 382.249 33.179 382.062 32.7559C381.876 32.3242 381.783 31.4229 381.783 30.0518V22.2949H380.107V20.5176H381.783V17.1787L384.056 15.8076V20.5176H386.354V22.2949H384.056V30.1787C384.056 30.8304 384.094 31.2493 384.17 31.4355C384.255 31.6217 384.386 31.7699 384.563 31.8799C384.75 31.9899 385.012 32.0449 385.351 32.0449C385.604 32.0449 385.939 32.0153 386.354 31.9561Z" fill="#C4C4C4"/>
</svg>
