<svg width="597" height="50" viewBox="0 0 597 50" fill="none" xmlns="http://www.w3.org/2000/svg">
<rect width="597" height="50" rx="12" fill="#444444"/>
<path d="M267.904 34V15.3887H270.367V31.8037H279.533V34H267.904ZM281.336 27.2588C281.336 24.762 282.03 22.9128 283.418 21.7109C284.577 20.7122 285.991 20.2129 287.658 20.2129C289.512 20.2129 291.027 20.8223 292.203 22.041C293.38 23.2513 293.968 24.9271 293.968 27.0684C293.968 28.8034 293.705 30.1702 293.181 31.1689C292.664 32.1592 291.907 32.9294 290.908 33.4795C289.918 34.0296 288.835 34.3047 287.658 34.3047C285.771 34.3047 284.243 33.6995 283.075 32.4893C281.916 31.279 281.336 29.5355 281.336 27.2588ZM283.685 27.2588C283.685 28.9854 284.061 30.2803 284.814 31.1436C285.568 31.9984 286.516 32.4258 287.658 32.4258C288.792 32.4258 289.736 31.9941 290.489 31.1309C291.243 30.2676 291.619 28.9515 291.619 27.1826C291.619 25.5153 291.238 24.2542 290.477 23.3994C289.723 22.5361 288.784 22.1045 287.658 22.1045C286.516 22.1045 285.568 22.5319 284.814 23.3867C284.061 24.2415 283.685 25.5322 283.685 27.2588ZM296.24 35.1172L298.462 35.4473C298.555 36.1328 298.813 36.6322 299.236 36.9453C299.803 37.3685 300.578 37.5801 301.56 37.5801C302.618 37.5801 303.434 37.3685 304.01 36.9453C304.585 36.5221 304.975 35.9297 305.178 35.168C305.296 34.7025 305.351 33.7249 305.343 32.2354C304.344 33.4118 303.1 34 301.61 34C299.757 34 298.322 33.3314 297.307 31.9941C296.291 30.6569 295.783 29.0531 295.783 27.1826C295.783 25.8962 296.016 24.7113 296.481 23.6279C296.947 22.5361 297.62 21.694 298.5 21.1016C299.389 20.5091 300.43 20.2129 301.623 20.2129C303.214 20.2129 304.526 20.8561 305.559 22.1426V20.5176H307.666V32.1719C307.666 34.2708 307.45 35.7562 307.019 36.6279C306.595 37.5081 305.918 38.2021 304.987 38.71C304.065 39.2178 302.926 39.4717 301.572 39.4717C299.964 39.4717 298.665 39.1077 297.675 38.3799C296.685 37.6605 296.206 36.5729 296.24 35.1172ZM298.132 27.0176C298.132 28.7865 298.483 30.0771 299.186 30.8896C299.888 31.7021 300.768 32.1084 301.826 32.1084C302.876 32.1084 303.756 31.7064 304.467 30.9023C305.178 30.0898 305.533 28.8203 305.533 27.0938C305.533 25.4434 305.165 24.1992 304.429 23.3613C303.701 22.5234 302.821 22.1045 301.788 22.1045C300.772 22.1045 299.909 22.5192 299.198 23.3486C298.487 24.1696 298.132 25.3926 298.132 27.0176ZM311.145 18.0166V15.3887H313.43V18.0166H311.145ZM311.145 34V20.5176H313.43V34H311.145ZM316.921 34V20.5176H318.978V22.4346C319.968 20.9535 321.398 20.2129 323.269 20.2129C324.081 20.2129 324.826 20.361 325.503 20.6572C326.188 20.945 326.701 21.3258 327.039 21.7998C327.378 22.2738 327.615 22.8366 327.75 23.4883C327.835 23.9115 327.877 24.652 327.877 25.71V34H325.592V25.7988C325.592 24.8678 325.503 24.1738 325.325 23.7168C325.147 23.2513 324.83 22.8831 324.373 22.6123C323.924 22.333 323.396 22.1934 322.786 22.1934C321.813 22.1934 320.971 22.5023 320.26 23.1201C319.557 23.738 319.206 24.9102 319.206 26.6367V34H316.921Z" fill="#C4C4C4"/>
</svg>
